<?xml version="1.0" encoding="UTF-8"?>
<svg width="24px" height="25px" viewBox="0 0 24 25" version="1.1" xmlns="http://www.w3.org/2000/svg" xmlns:xlink="http://www.w3.org/1999/xlink">
    <!-- Generator: Sketch 64 (93537) - https://sketch.com -->
    <title>arrows</title>
    <desc>Created with Sketch.</desc>
    <g id="Designs" stroke="none" stroke-width="1" fill="none" fill-rule="evenodd">
        <g id="Desktop---Careers-----All-in-One" transform="translate(-43.000000, -1664.000000)">
            <g id="why-work-with-us" transform="translate(42.000000, 870.000000)">
                <g id="cta" transform="translate(1.000000, 794.500000)">
                    <g id="arrows">
                        <circle id="Oval" fill="#FFFFFF" cx="12" cy="12" r="12"></circle>
                        <path fill="#000000" d="M12.0172786,7 C13.2958963,8.09792285 14.574514,9.1958457 15.8185745,10.2937685 C16.0604752,10.4718101 16.0604752,10.7982196 15.8185745,11.0059347 C15.6112311,11.1839763 15.2311015,11.1839763 15.0237581,11.0059347 L12.6047516,8.92878338 L12.6047516,16.495549 C12.6047516,16.7922849 12.3282937,17 12.0172786,17 C11.6717063,17 11.4298056,16.7922849 11.4298056,16.495549 L11.4298056,8.92878338 L9.01079914,11.0059347 C8.76889849,11.1839763 8.42332613,11.1839763 8.18142549,11.0059347 C7.93952484,10.7982196 7.93952484,10.4718101 8.18142549,10.2937685 C9.4600432,9.1958457 10.7386609,8.09792285 12.0172786,7 Z" id="Path" fill-rule="nonzero" transform="translate(12.000000, 12.000000) rotate(-180.000000) translate(-12.000000, -12.000000) "></path>
                    </g>
                </g>
            </g>
        </g>
    </g>
</svg>