<?xml version="1.0" encoding="utf-8"?>
<svg version="1.1" id="Layer_1" xmlns="http://www.w3.org/2000/svg" xmlns:xlink="http://www.w3.org/1999/xlink" x="0px" y="0px"
	 viewBox="0 0 10.5 10.5">
<style type="text/css">
	.st0{fill:#FFFFFF;}
</style>
<path class="st0" d="M5,0C4.7,0,4.4,0.2,4.4,0.5V2V8v1.5C4.4,9.8,4.7,10,5,10c0.3,0,0.6-0.2,0.6-0.5V8V2V0.5C5.6,0.2,5.3,0,5,0z"/>
<path class="st0" d="M0,5c0,0.3,0.2,0.6,0.5,0.6H2H8h1.5C9.8,5.6,10,5.3,10,5c0-0.3-0.2-0.6-0.5-0.6H8H2H0.5C0.2,4.4,0,4.7,0,5z"/>
</svg>
