<?xml version="1.0" encoding="UTF-8"?>
<svg width="32px" height="31px" viewBox="0 0 32 31" version="1.1" xmlns="http://www.w3.org/2000/svg" xmlns:xlink="http://www.w3.org/1999/xlink">
    <!-- Generator: Sketch 63.1 (92452) - https://sketch.com -->
    <title>Path</title>
    <desc>Created with Sketch.</desc>
    <g id="Designs" stroke="none" stroke-width="1" fill="none" fill-rule="evenodd">
        <g id="Desktop---Careers-----All-in-One" transform="translate(-294.000000, -7869.000000)" fill="#FF5919">
            <g id="footer" transform="translate(0.000000, 7274.000000)">
                <g id="halcon-headquarters" transform="translate(43.000000, 100.000000)">
                    <g id="-BG-Image" transform="translate(0.000000, 186.000000)">
                        <g id="img-con">
                            <path d="M266.965831,309.000872 C266.677969,309.014854 266.428676,309.205244 266.339392,309.479296 L262.854107,319.936276 L251.692085,319.936276 C251.392676,319.937239 251.127612,320.130061 251.034484,320.414651 C250.941355,320.69924 251.041144,321.011481 251.28205,321.189294 L260.348345,327.8189 L256.863063,338.640388 C256.76999,338.92696 256.872342,339.24086 257.116443,339.417466 C257.360544,339.594073 257.690676,339.593074 257.933704,339.414993 L267,332.785391 L276.066297,339.414993 C276.309324,339.593074 276.639457,339.594073 276.883557,339.417466 C277.127658,339.24086 277.230011,338.92696 277.136937,338.640388 L273.651652,327.8189 L282.71795,321.189294 C282.958856,321.011481 283.058645,320.69924 282.965516,320.414651 C282.872388,320.130061 282.607324,319.937239 282.307915,319.936276 L271.145894,319.936276 L267.660609,309.479296 C267.563537,309.181266 267.278851,308.985231 266.965831,309.000872 L266.965831,309.000872 Z" id="Path" transform="translate(267.000000, 324.274620) rotate(-360.000000) translate(-267.000000, -324.274620) "></path>
                        </g>
                    </g>
                </g>
            </g>
        </g>
    </g>
</svg>